<mxfile host="65bd71144e">
    <diagram id="c1CA4KnZPpZkaQB_g_Jw" name="Page-1">
        <mxGraphModel dx="1659" dy="427" grid="1" gridSize="10" guides="1" tooltips="1" connect="1" arrows="1" fold="1" page="1" pageScale="1" pageWidth="850" pageHeight="1100" math="0" shadow="0">
            <root>
                <mxCell id="0"/>
                <mxCell id="1" parent="0"/>
                <mxCell id="75" value="버스 정보 관련 Thread 서비스" style="swimlane;startSize=30;fontSize=11;fontFamily=Helvetica;" parent="1" vertex="1">
                    <mxGeometry x="-290" y="80" width="400" height="290" as="geometry">
                        <mxRectangle x="400" y="50" width="50" height="40" as="alternateBounds"/>
                    </mxGeometry>
                </mxCell>
                <mxCell id="2" value="bus_api_requester" style="rounded=1;whiteSpace=wrap;html=1;fontSize=11;" parent="75" vertex="1">
                    <mxGeometry x="20" y="130" width="120" height="40" as="geometry"/>
                </mxCell>
                <mxCell id="97" style="edgeStyle=none;html=1;exitX=0;exitY=0.5;exitDx=0;exitDy=0;entryX=1;entryY=0.75;entryDx=0;entryDy=0;" parent="75" source="6" target="2" edge="1">
                    <mxGeometry relative="1" as="geometry"/>
                </mxCell>
                <mxCell id="6" value="경기도 버스노선 조회/&lt;br style=&quot;font-size: 11px;&quot;&gt;노선정보항목 조회 API" style="rounded=1;whiteSpace=wrap;html=1;align=center;fontSize=11;" parent="75" vertex="1">
                    <mxGeometry x="180" y="150" width="200" height="40" as="geometry"/>
                </mxCell>
                <mxCell id="95" style="edgeStyle=none;html=1;exitX=0;exitY=0.5;exitDx=0;exitDy=0;entryX=1;entryY=0;entryDx=0;entryDy=0;" parent="75" source="7" target="2" edge="1">
                    <mxGeometry relative="1" as="geometry"/>
                </mxCell>
                <mxCell id="7" value="경기도 정류소 조회/&lt;br style=&quot;font-size: 11px;&quot;&gt;정류소명/번호 목록조회 API" style="rounded=1;whiteSpace=wrap;html=1;align=center;fontSize=11;" parent="75" vertex="1">
                    <mxGeometry x="180" y="50" width="200" height="40" as="geometry"/>
                </mxCell>
                <mxCell id="98" style="edgeStyle=none;html=1;exitX=0;exitY=0.5;exitDx=0;exitDy=0;entryX=1;entryY=0.25;entryDx=0;entryDy=0;" parent="75" source="8" target="2" edge="1">
                    <mxGeometry relative="1" as="geometry"/>
                </mxCell>
                <mxCell id="8" value="경기도 버스 도착정보/&lt;br style=&quot;font-size: 11px;&quot;&gt;버스도착정보목록조회 API" style="rounded=1;whiteSpace=wrap;html=1;align=center;fontSize=11;" parent="75" vertex="1">
                    <mxGeometry x="180" y="100" width="200" height="40" as="geometry"/>
                </mxCell>
                <mxCell id="96" style="edgeStyle=none;html=1;exitX=0;exitY=0.5;exitDx=0;exitDy=0;entryX=0.987;entryY=0.942;entryDx=0;entryDy=0;entryPerimeter=0;" parent="75" source="11" target="2" edge="1">
                    <mxGeometry relative="1" as="geometry"/>
                </mxCell>
                <mxCell id="11" value="경기도 버스노선 조회/&lt;br style=&quot;font-size: 11px;&quot;&gt;경유정류소 목록 조회 API" style="rounded=1;whiteSpace=wrap;html=1;align=center;fontSize=11;" parent="75" vertex="1">
                    <mxGeometry x="180" y="200" width="200" height="40" as="geometry"/>
                </mxCell>
                <mxCell id="23" value="bus info refresh&lt;br&gt;Manager" style="rounded=1;whiteSpace=wrap;html=1;" parent="75" vertex="1">
                    <mxGeometry x="20" y="210" width="120" height="60" as="geometry"/>
                </mxCell>
                <mxCell id="70" style="edgeStyle=none;rounded=1;html=1;exitX=0.5;exitY=1;exitDx=0;exitDy=0;entryX=0.5;entryY=0;entryDx=0;entryDy=0;strokeColor=default;fontSize=11;endArrow=classicThin;endFill=1;" parent="75" source="2" target="23" edge="1">
                    <mxGeometry relative="1" as="geometry"/>
                </mxCell>
                <mxCell id="88" value="날씨 관련 Thread 서비스" style="swimlane;whiteSpace=wrap;html=1;startSize=30;" parent="1" vertex="1">
                    <mxGeometry x="-730" y="80" width="400" height="290" as="geometry">
                        <mxRectangle x="400" y="360" width="170" height="30" as="alternateBounds"/>
                    </mxGeometry>
                </mxCell>
                <mxCell id="100" style="edgeStyle=none;html=1;exitX=0;exitY=0.5;exitDx=0;exitDy=0;entryX=1;entryY=0.25;entryDx=0;entryDy=0;" parent="88" source="59" target="57" edge="1">
                    <mxGeometry relative="1" as="geometry"/>
                </mxCell>
                <mxCell id="59" value="&lt;font style=&quot;font-size: 10px;&quot;&gt;한국환경공단 에어코리아 대기오염정보/&lt;br&gt;시도별 실시간 측정정보 조회 API&lt;br&gt;&lt;/font&gt;" style="rounded=1;whiteSpace=wrap;html=1;" parent="88" vertex="1">
                    <mxGeometry x="180" y="50" width="200" height="40" as="geometry"/>
                </mxCell>
                <mxCell id="99" style="edgeStyle=none;html=1;exitX=0;exitY=0.5;exitDx=0;exitDy=0;entryX=1;entryY=0.5;entryDx=0;entryDy=0;" parent="88" source="60" target="57" edge="1">
                    <mxGeometry relative="1" as="geometry"/>
                </mxCell>
                <mxCell id="60" value="&lt;font style=&quot;font-size: 10px;&quot;&gt;기상청 단기예보 조회서비스/&lt;br&gt;단기예보조회&lt;br&gt;&lt;/font&gt;" style="rounded=1;whiteSpace=wrap;html=1;" parent="88" vertex="1">
                    <mxGeometry x="180" y="100" width="200" height="40" as="geometry"/>
                </mxCell>
                <mxCell id="57" value="weather_api_requester" style="rounded=1;whiteSpace=wrap;html=1;fontSize=11;" parent="88" vertex="1">
                    <mxGeometry x="20" y="130" width="120" height="40" as="geometry"/>
                </mxCell>
                <mxCell id="66" value="weather info refresh&lt;br&gt;Manager" style="rounded=1;whiteSpace=wrap;html=1;" parent="88" vertex="1">
                    <mxGeometry x="20" y="210" width="120" height="60" as="geometry"/>
                </mxCell>
                <mxCell id="69" style="edgeStyle=none;rounded=1;html=1;exitX=0.5;exitY=1;exitDx=0;exitDy=0;entryX=0.5;entryY=0;entryDx=0;entryDy=0;strokeColor=default;fontSize=11;endArrow=classicThin;endFill=1;" parent="88" source="57" target="66" edge="1">
                    <mxGeometry relative="1" as="geometry"/>
                </mxCell>
                <mxCell id="102" style="edgeStyle=none;html=1;exitX=0.75;exitY=1;exitDx=0;exitDy=0;entryX=0.25;entryY=0;entryDx=0;entryDy=0;fontSize=25;" parent="1" source="66" target="68" edge="1">
                    <mxGeometry relative="1" as="geometry"/>
                </mxCell>
                <mxCell id="103" style="edgeStyle=none;html=1;exitX=0.5;exitY=1;exitDx=0;exitDy=0;entryX=0.75;entryY=0;entryDx=0;entryDy=0;fontSize=25;" parent="1" source="23" target="68" edge="1">
                    <mxGeometry relative="1" as="geometry"/>
                </mxCell>
                <mxCell id="104" value="Information&amp;nbsp;Processing" style="swimlane;horizontal=0;whiteSpace=wrap;html=1;fontSize=25;direction=east;startSize=40;" parent="1" vertex="1">
                    <mxGeometry x="-810" y="40" width="960" height="570" as="geometry"/>
                </mxCell>
                <mxCell id="68" value="Screen Generator" style="rounded=1;whiteSpace=wrap;html=1;fontSize=25;" parent="104" vertex="1">
                    <mxGeometry x="310" y="370" width="280" height="160" as="geometry"/>
                </mxCell>
                <mxCell id="105" value="DIsplay Processing" style="swimlane;horizontal=0;whiteSpace=wrap;html=1;fontSize=25;startSize=40;" parent="1" vertex="1">
                    <mxGeometry x="190" y="40" width="620" height="570" as="geometry"/>
                </mxCell>
                <mxCell id="110" value="RGB Matrix&lt;br style=&quot;font-size: 30px;&quot;&gt;Manager" style="rounded=1;whiteSpace=wrap;html=1;fontSize=30;" parent="105" vertex="1">
                    <mxGeometry x="90" y="50" width="490" height="480" as="geometry"/>
                </mxCell>
                <mxCell id="113" style="edgeStyle=none;html=1;exitX=1;exitY=0.5;exitDx=0;exitDy=0;entryX=0;entryY=0.75;entryDx=0;entryDy=0;fontSize=30;" parent="1" source="68" target="110" edge="1">
                    <mxGeometry relative="1" as="geometry"/>
                </mxCell>
            </root>
        </mxGraphModel>
    </diagram>
</mxfile>